<svg width="251" height="39" viewBox="0 0 251 39" fill="none" xmlns="http://www.w3.org/2000/svg">
<path d="M30.516 13.208V26.008C30.516 26.936 30.804 27.8 31.924 27.8C33.044 27.8 33.332 26.936 33.332 26.008V13.208C33.332 12.28 33.044 11.416 31.924 11.416C30.804 11.416 30.516 12.28 30.516 13.208ZM38.324 31.16V35.096C34.484 35.096 32.98 34.712 32.788 31.416C32.5 31.448 32.212 31.448 31.924 31.448C28.404 31.448 25.204 30.008 25.204 24.792V14.424C25.204 9.208 28.404 7.768 31.924 7.768C35.444 7.768 38.644 9.208 38.644 14.424V24.792C38.644 27.928 37.492 29.688 35.764 30.584V31.16H38.324ZM54.1278 8.216V24.504C53.9998 29.336 52.3358 31.448 47.3758 31.448C40.8158 31.448 40.6878 26.872 40.6878 23.992V8.216H45.9998V24.632C45.9998 26.456 45.9998 27.8 47.3758 27.8C48.8158 27.8 48.8158 26.456 48.8158 24.632V8.216H54.1278ZM61.7395 21.944H63.6595L62.7315 11.8H62.6675L61.7395 21.944ZM59.6915 8.216H66.9875L69.9315 31H64.6515L64.0435 25.4H61.1635L60.2995 31H55.8195L59.6915 8.216ZM82.6632 31H71.5912V8.216H76.9032V27.544H82.6632V31ZM89.355 31H84.043V8.216H89.355V31ZM94.7662 11.672H91.0542V8.216H103.79V11.672H100.078V31H94.7662V11.672ZM109.639 31V22.616L105.127 8.216H110.311L112.263 17.272H112.327L114.279 8.216H119.463L114.951 22.616V31H109.639ZM134.385 31H129.073V8.216H134.417C139.473 8.216 142.481 8.728 142.481 13.528C142.481 16.376 141.297 18.232 138.417 18.712V18.776C140.977 18.84 142.481 19.8 142.481 23.064V27.832C142.481 28.728 142.641 30.072 143.281 31H137.937C137.297 30.072 137.169 28.728 137.169 27.832V23C137.169 21.4 136.209 20.6 135.249 20.6H134.385V31ZM134.385 11.48V17.336C136.785 17.336 137.169 16.536 137.169 14.392C137.169 12.28 136.817 11.48 134.385 11.48ZM149.932 13.208V26.008C149.932 26.936 150.22 27.8 151.34 27.8C152.46 27.8 152.748 26.936 152.748 26.008V13.208C152.748 12.28 152.46 11.416 151.34 11.416C150.22 11.416 149.932 12.28 149.932 13.208ZM158.06 14.424V24.792C158.06 30.008 154.86 31.448 151.34 31.448C147.82 31.448 144.62 30.008 144.62 24.792V14.424C144.62 9.208 147.82 7.768 151.34 7.768C154.86 7.768 158.06 9.208 158.06 14.424ZM165.416 13.208V26.008C165.416 26.936 165.704 27.8 166.824 27.8C167.944 27.8 168.232 26.936 168.232 26.008V13.208C168.232 12.28 167.944 11.416 166.824 11.416C165.704 11.416 165.416 12.28 165.416 13.208ZM173.544 14.424V24.792C173.544 30.008 170.344 31.448 166.824 31.448C163.304 31.448 160.104 30.008 160.104 24.792V14.424C160.104 9.208 163.304 7.768 166.824 7.768C170.344 7.768 173.544 9.208 173.544 14.424ZM180.836 31H175.524V8.216H186.532V11.672H180.836V16.664H186.34V20.12H180.836V31ZM193.287 31H187.975V8.216H193.287V31ZM195.051 31V8.216H202.411L205.803 24.792H205.867V8.216H210.027V31H203.211L199.275 11.96H199.211V31H195.051ZM222.219 31L221.931 29.848C221.355 30.488 220.587 30.904 219.755 31.128C218.955 31.384 218.091 31.448 217.323 31.448C213.835 31.448 211.883 30.008 211.883 24.792V14.424C211.883 9.208 215.083 7.768 218.603 7.768C222.891 7.768 225.291 9.496 225.355 13.976L225.323 16.376H220.011V13.208C220.011 12.28 219.723 11.416 218.603 11.416C217.483 11.416 217.195 12.28 217.195 13.208V26.008C217.195 26.936 217.451 27.8 218.603 27.8C219.723 27.8 220.011 26.936 220.011 26.008V22.968H217.995V19.512H225.323V31H222.219Z" fill="black"/>
<path d="M249.5 33L227.853 6H226.5L248.147 33H249.5Z" fill="#EC6051" stroke="#EC6051"/>
<path d="M1.5 33L23.1471 6H24.5L2.85294 33H1.5Z" fill="#EC6051" stroke="#EC6051"/>
</svg>
